<svg height="526" width="720" xmlns="http://www.w3.org/2000/svg">
<rect height="526" fill="#555" width="720"></rect>
<text fill="#7f7" font-family="Courier New" font-size="12" xml:space="preserve">
<tspan x="10" y="26">2017-04-28 00:39:52 +0800</tspan>
<tspan x="10" y="42">[npm publishAfterCommitAfterBuild]</tspan>
<tspan x="10" y="58">2017-04-26 13:04:35 +0000</tspan>
<tspan x="10" y="74">[npm publishAfterCommit]</tspan>
<tspan x="10" y="90"></tspan>
<tspan x="10" y="106">2017-04-26 13:04:33 +0000</tspan>
<tspan x="10" y="122">[ci skip] npm published</tspan>
<tspan x="10" y="138"></tspan>
<tspan x="10" y="154">2017-04-26 13:03:18 +0000</tspan>
<tspan x="10" y="170">[npm publishAfterCommitAfterBuild]</tspan>
<tspan x="10" y="186"></tspan>
<tspan x="10" y="202">2017-04-18 06:49:08 +0000</tspan>
<tspan x="10" y="218">[ci skip] npm published</tspan>
<tspan x="10" y="234"></tspan>
<tspan x="10" y="250">2017-04-18 03:59:13 +0800</tspan>
<tspan x="10" y="266">[npm publishAfterCommitAfterBuild]</tspan>
<tspan x="10" y="282">2017-04-18 02:02:26 +0800</tspan>
<tspan x="10" y="298">[npm publishAfterCommitAfterBuild]</tspan>
<tspan x="10" y="314">2017-04-04 09:04:06 +0000</tspan>
<tspan x="10" y="330">[ci skip] npm published</tspan>
<tspan x="10" y="346"></tspan>
<tspan x="10" y="362">2017-04-04 14:49:37 +0800</tspan>
<tspan x="10" y="378">[npm publishAfterCommitAfterBuild]</tspan>
<tspan x="10" y="394">2017-04-03 16:12:53 +0000</tspan>
<tspan x="10" y="410">[npm publishAfterCommit]</tspan>
<tspan x="10" y="426"></tspan>
<tspan x="10" y="442">2017-04-03 12:43:34 +0000</tspan>
<tspan x="10" y="458">[npm publishAfterCommitAfterBuild]</tspan>
<tspan x="10" y="474"></tspan>
<tspan x="10" y="490">2014-03-26 02:31:50 +0700</tspan>
<tspan x="10" y="506">add blank README.md</tspan>
</text>
</svg>
